# xmcd CD database file
#
# Track frame offsets:
#	150
#	14859
#	32951
#	46441
#	60092
#	73381
#	85448
#	103288
#	118211
#	135395
#	153551
#	170330
#
# Disc length: 2453 seconds
#
# Revision: 0
# Processed by: cddbd v1.5.1PL0 Copyright (c) Steve Scherf et al.
# Submitted via: CDex 1.51
#
DISCID=af09930c
DTITLE=Len Doolin - Once In A Lifetime
DYEAR=1900
DGENRE=Country
TTITLE0=Breakin' What's Left Of My Heart
TTITLE1=Redneck Relapse
TTITLE2=The Promise
TTITLE3=Heartaches and Honky Tonks
TTITLE4=My World Is Turnin' Again
TTITLE5=Girl With A Bass Boat
TTITLE6=She Took His Breath Away
TTITLE7=Time Flies
TTITLE8=Heaven Sent Me You
TTITLE9=Silence Says It All 
TTITLE10=Once in A Livetime
TTITLE11=There Ain't No Yellow In The Red, White and Blue
EXTD=
EXTT0=
EXTT1=
EXTT2=
EXTT3=
EXTT4=
EXTT5=
EXTT6=
EXTT7=
EXTT8=
EXTT9=
EXTT10=
EXTT11=
PLAYORDER=
